solid OpenSCAD_Model
  facet normal -0.120537 0 0.992709
    outer loop
      vertex -56.9145 7.5 7.76753
      vertex -55 -7.5 8
      vertex -55 7.5 8
    endloop
  endfacet
  facet normal -0.120537 0 0.992709
    outer loop
      vertex -55 -7.5 8
      vertex -56.9145 7.5 7.76753
      vertex -56.9145 -7.5 7.76753
    endloop
  endfacet
  facet normal 0.120537 0 0.992709
    outer loop
      vertex -55 7.5 8
      vertex -53.0855 -7.5 7.76753
      vertex -53.0855 7.5 7.76753
    endloop
  endfacet
  facet normal 0.120537 0 0.992709
    outer loop
      vertex -53.0855 -7.5 7.76753
      vertex -55 7.5 8
      vertex -55 -7.5 8
    endloop
  endfacet
  facet normal -1 0 0
    outer loop
      vertex -62.9417 -7.5 -0.964293
      vertex -62.9417 7.5 0.964293
      vertex -62.9417 7.5 -0.964293
    endloop
  endfacet
  facet normal -1 -0 0
    outer loop
      vertex -62.9417 7.5 0.964293
      vertex -62.9417 -7.5 -0.964293
      vertex -62.9417 -7.5 0.964293
    endloop
  endfacet
  facet normal -0.970942 0 -0.239315
    outer loop
      vertex -62.4801 -7.5 -2.83684
      vertex -62.9417 7.5 -0.964293
      vertex -62.4801 7.5 -2.83684
    endloop
  endfacet
  facet normal -0.970942 -0 -0.239315
    outer loop
      vertex -62.9417 7.5 -0.964293
      vertex -62.4801 -7.5 -2.83684
      vertex -62.9417 -7.5 -0.964293
    endloop
  endfacet
  facet normal -0.885456 0 0.464723
    outer loop
      vertex -62.4801 -7.5 2.83684
      vertex -61.5839 7.5 4.54452
      vertex -62.4801 7.5 2.83684
    endloop
  endfacet
  facet normal -0.885456 0 0.464723
    outer loop
      vertex -61.5839 7.5 4.54452
      vertex -62.4801 -7.5 2.83684
      vertex -61.5839 -7.5 4.54452
    endloop
  endfacet
  facet normal -0.354605 0 0.935016
    outer loop
      vertex -58.7178 7.5 7.08365
      vertex -56.9145 -7.5 7.76753
      vertex -56.9145 7.5 7.76753
    endloop
  endfacet
  facet normal -0.354605 0 0.935016
    outer loop
      vertex -56.9145 -7.5 7.76753
      vertex -58.7178 7.5 7.08365
      vertex -58.7178 -7.5 7.08365
    endloop
  endfacet
  facet normal -0.748511 0 0.663122
    outer loop
      vertex -61.5839 -7.5 4.54452
      vertex -60.305 7.5 5.98809
      vertex -61.5839 7.5 4.54452
    endloop
  endfacet
  facet normal -0.748511 0 0.663122
    outer loop
      vertex -60.305 7.5 5.98809
      vertex -61.5839 -7.5 4.54452
      vertex -60.305 -7.5 5.98809
    endloop
  endfacet
  facet normal 0.970946 0 -0.2393
    outer loop
      vertex -47.0583 -7.5 -0.964293
      vertex -47.0671 7.5 -1
      vertex -47.0583 7.5 -0.964293
    endloop
  endfacet
  facet normal 0.970946 0 -0.2393
    outer loop
      vertex -47.0671 7.5 -1
      vertex -47.0583 -7.5 -0.964293
      vertex -47.0671 -7.5 -1
    endloop
  endfacet
  facet normal -0 -1 0
    outer loop
      vertex -47.0671 -7.5 -1
      vertex -47.0583 -7.5 -0.964293
      vertex -47.5199 -7.5 -2.83684
    endloop
  endfacet
  facet normal -0.885459 0 -0.464718
    outer loop
      vertex -62.3945 -7.5 -3
      vertex -62.4801 7.5 -2.83684
      vertex -62.3945 7.5 -3
    endloop
  endfacet
  facet normal -0.885459 -0 -0.464718
    outer loop
      vertex -62.4801 7.5 -2.83684
      vertex -62.3945 -7.5 -3
      vertex -62.4801 -7.5 -2.83684
    endloop
  endfacet
  facet normal 0 1 -0
    outer loop
      vertex -54.0629 7.5 5.01316
      vertex -55 7.5 8
      vertex -53.0855 7.5 7.76753
    endloop
  endfacet
  facet normal 0 1 0
    outer loop
      vertex -54.0629 7.5 5.01316
      vertex -53.0855 7.5 7.76753
      vertex -51.2822 7.5 7.08365
    endloop
  endfacet
  facet normal 0 1 0
    outer loop
      vertex -55.9371 7.5 5.01316
      vertex -55 7.5 8
      vertex -54.0629 7.5 5.01316
    endloop
  endfacet
  facet normal 0 1 0
    outer loop
      vertex -52.3152 7.5 4.33611
      vertex -51.2822 7.5 7.08365
      vertex -49.695 7.5 5.98809
    endloop
  endfacet
  facet normal 0 1 0
    outer loop
      vertex -55 7.5 8
      vertex -55.9371 7.5 5.01316
      vertex -56.9145 7.5 7.76753
    endloop
  endfacet
  facet normal 0 1 0
    outer loop
      vertex -56.9145 7.5 7.76753
      vertex -55.9371 7.5 5.01316
      vertex -58.7178 7.5 7.08365
    endloop
  endfacet
  facet normal 0 1 0
    outer loop
      vertex -50.9301 7.5 3.07344
      vertex -49.695 7.5 5.98809
      vertex -48.4161 7.5 4.54452
    endloop
  endfacet
  facet normal 0 1 0
    outer loop
      vertex -51.2822 7.5 7.08365
      vertex -52.3152 7.5 4.33611
      vertex -54.0629 7.5 5.01316
    endloop
  endfacet
  facet normal 0 1 0
    outer loop
      vertex -49.695 7.5 5.98809
      vertex -50.9301 7.5 3.07344
      vertex -52.3152 7.5 4.33611
    endloop
  endfacet
  facet normal 0 1 0
    outer loop
      vertex -47.5199 7.5 2.83684
      vertex -50.9301 7.5 3.07344
      vertex -48.4161 7.5 4.54452
    endloop
  endfacet
  facet normal 0 1 0
    outer loop
      vertex -47.5199 7.5 2.83684
      vertex -50.0947 7.5 1.39568
      vertex -50.9301 7.5 3.07344
    endloop
  endfacet
  facet normal 0 1 0
    outer loop
      vertex -47.0583 7.5 0.964293
      vertex -50.0947 7.5 1.39568
      vertex -47.5199 7.5 2.83684
    endloop
  endfacet
  facet normal 0 1 0
    outer loop
      vertex -47.0583 7.5 0.964293
      vertex -49.9218 7.5 -0.470568
      vertex -50.0947 7.5 1.39568
    endloop
  endfacet
  facet normal 0 1 -0
    outer loop
      vertex -47.0583 7.5 -0.964293
      vertex -49.9218 7.5 -0.470568
      vertex -47.0583 7.5 0.964293
    endloop
  endfacet
  facet normal 0 1 -0
    outer loop
      vertex -47.0671 7.5 -1
      vertex -49.9218 7.5 -0.470568
      vertex -47.0583 7.5 -0.964293
    endloop
  endfacet
  facet normal 0 1 0
    outer loop
      vertex -50 7.5 -1
      vertex -49.9218 7.5 -0.470568
      vertex -47.0671 7.5 -1
    endloop
  endfacet
  facet normal 0 1 0
    outer loop
      vertex -49.9218 7.5 -0.470568
      vertex -50 7.5 -1
      vertex -50 7.5 -0.745567
    endloop
  endfacet
  facet normal 0 1 -0
    outer loop
      vertex -57.6848 7.5 4.33611
      vertex -58.7178 7.5 7.08365
      vertex -55.9371 7.5 5.01316
    endloop
  endfacet
  facet normal 0 1 0
    outer loop
      vertex -58.7178 7.5 7.08365
      vertex -57.6848 7.5 4.33611
      vertex -60.305 7.5 5.98809
    endloop
  endfacet
  facet normal 0 1 -0
    outer loop
      vertex -59.0699 7.5 3.07344
      vertex -60.305 7.5 5.98809
      vertex -57.6848 7.5 4.33611
    endloop
  endfacet
  facet normal 0 1 0
    outer loop
      vertex -60.305 7.5 5.98809
      vertex -59.0699 7.5 3.07344
      vertex -61.5839 7.5 4.54452
    endloop
  endfacet
  facet normal 0 1 0
    outer loop
      vertex -59.0699 7.5 3.07344
      vertex -62.4801 7.5 2.83684
      vertex -61.5839 7.5 4.54452
    endloop
  endfacet
  facet normal 0 1 -0
    outer loop
      vertex -59.9053 7.5 1.39568
      vertex -62.4801 7.5 2.83684
      vertex -59.0699 7.5 3.07344
    endloop
  endfacet
  facet normal 0 1 0
    outer loop
      vertex -59.9053 7.5 1.39568
      vertex -62.9417 7.5 0.964293
      vertex -62.4801 7.5 2.83684
    endloop
  endfacet
  facet normal 0 1 -0
    outer loop
      vertex -60.0782 7.5 -0.470568
      vertex -62.9417 7.5 0.964293
      vertex -59.9053 7.5 1.39568
    endloop
  endfacet
  facet normal 0 1 0
    outer loop
      vertex -60.0782 7.5 -0.470568
      vertex -62.9417 7.5 -0.964293
      vertex -62.9417 7.5 0.964293
    endloop
  endfacet
  facet normal 0 1 0
    outer loop
      vertex -62.4801 7.5 -2.83684
      vertex -60.0782 7.5 -0.470568
      vertex -59.5653 7.5 -2.27326
    endloop
  endfacet
  facet normal 0 1 0
    outer loop
      vertex -60.0782 7.5 -0.470568
      vertex -62.4801 7.5 -2.83684
      vertex -62.9417 7.5 -0.964293
    endloop
  endfacet
  facet normal 0 1 0
    outer loop
      vertex -62.3945 7.5 -3
      vertex -59.5653 7.5 -2.27326
      vertex -59.0165 7.5 -3
    endloop
  endfacet
  facet normal 0 1 0
    outer loop
      vertex -59.5653 7.5 -2.27326
      vertex -62.3945 7.5 -3
      vertex -62.4801 7.5 -2.83684
    endloop
  endfacet
  facet normal -0.568065 0 0.822984
    outer loop
      vertex -60.305 7.5 5.98809
      vertex -58.7178 -7.5 7.08365
      vertex -58.7178 7.5 7.08365
    endloop
  endfacet
  facet normal -0.568065 0 0.822984
    outer loop
      vertex -58.7178 -7.5 7.08365
      vertex -60.305 7.5 5.98809
      vertex -60.305 -7.5 5.98809
    endloop
  endfacet
  facet normal -0.970942 0 0.239315
    outer loop
      vertex -62.9417 -7.5 0.964293
      vertex -62.4801 7.5 2.83684
      vertex -62.9417 7.5 0.964293
    endloop
  endfacet
  facet normal -0.970942 0 0.239315
    outer loop
      vertex -62.4801 7.5 2.83684
      vertex -62.9417 -7.5 0.964293
      vertex -62.4801 -7.5 2.83684
    endloop
  endfacet
  facet normal 0.748511 -0 0.663122
    outer loop
      vertex -49.695 -7.5 5.98809
      vertex -48.4161 7.5 4.54452
      vertex -49.695 7.5 5.98809
    endloop
  endfacet
  facet normal 0.748511 0 0.663122
    outer loop
      vertex -48.4161 7.5 4.54452
      vertex -49.695 -7.5 5.98809
      vertex -48.4161 -7.5 4.54452
    endloop
  endfacet
  facet normal 0.354605 0 0.935016
    outer loop
      vertex -53.0855 7.5 7.76753
      vertex -51.2822 -7.5 7.08365
      vertex -51.2822 7.5 7.08365
    endloop
  endfacet
  facet normal 0.354605 0 0.935016
    outer loop
      vertex -51.2822 -7.5 7.08365
      vertex -53.0855 7.5 7.76753
      vertex -53.0855 -7.5 7.76753
    endloop
  endfacet
  facet normal 0 -1 0
    outer loop
      vertex -55.9371 -7.5 5.01316
      vertex -55 -7.5 8
      vertex -56.9145 -7.5 7.76753
    endloop
  endfacet
  facet normal 0 -1 0
    outer loop
      vertex -55.9371 -7.5 5.01316
      vertex -56.9145 -7.5 7.76753
      vertex -58.7178 -7.5 7.08365
    endloop
  endfacet
  facet normal 0 -1 0
    outer loop
      vertex -54.0629 -7.5 5.01316
      vertex -55 -7.5 8
      vertex -55.9371 -7.5 5.01316
    endloop
  endfacet
  facet normal 0 -1 0
    outer loop
      vertex -57.6848 -7.5 4.33611
      vertex -58.7178 -7.5 7.08365
      vertex -60.305 -7.5 5.98809
    endloop
  endfacet
  facet normal 0 -1 0
    outer loop
      vertex -55 -7.5 8
      vertex -54.0629 -7.5 5.01316
      vertex -53.0855 -7.5 7.76753
    endloop
  endfacet
  facet normal 0 -1 -0
    outer loop
      vertex -53.0855 -7.5 7.76753
      vertex -54.0629 -7.5 5.01316
      vertex -51.2822 -7.5 7.08365
    endloop
  endfacet
  facet normal 0 -1 0
    outer loop
      vertex -59.0699 -7.5 3.07344
      vertex -60.305 -7.5 5.98809
      vertex -61.5839 -7.5 4.54452
    endloop
  endfacet
  facet normal 0 -1 0
    outer loop
      vertex -58.7178 -7.5 7.08365
      vertex -57.6848 -7.5 4.33611
      vertex -55.9371 -7.5 5.01316
    endloop
  endfacet
  facet normal 0 -1 0
    outer loop
      vertex -60.305 -7.5 5.98809
      vertex -59.0699 -7.5 3.07344
      vertex -57.6848 -7.5 4.33611
    endloop
  endfacet
  facet normal 0 -1 0
    outer loop
      vertex -62.4801 -7.5 2.83684
      vertex -59.0699 -7.5 3.07344
      vertex -61.5839 -7.5 4.54452
    endloop
  endfacet
  facet normal 0 -1 0
    outer loop
      vertex -62.4801 -7.5 2.83684
      vertex -59.9053 -7.5 1.39568
      vertex -59.0699 -7.5 3.07344
    endloop
  endfacet
  facet normal 0 -1 0
    outer loop
      vertex -62.9417 -7.5 0.964293
      vertex -59.9053 -7.5 1.39568
      vertex -62.4801 -7.5 2.83684
    endloop
  endfacet
  facet normal 0 -1 0
    outer loop
      vertex -62.9417 -7.5 0.964293
      vertex -60.0782 -7.5 -0.470568
      vertex -59.9053 -7.5 1.39568
    endloop
  endfacet
  facet normal 0 -1 0
    outer loop
      vertex -62.9417 -7.5 -0.964293
      vertex -60.0782 -7.5 -0.470568
      vertex -62.9417 -7.5 0.964293
    endloop
  endfacet
  facet normal 0 -1 0
    outer loop
      vertex -62.4801 -7.5 -2.83684
      vertex -60.0782 -7.5 -0.470568
      vertex -62.9417 -7.5 -0.964293
    endloop
  endfacet
  facet normal 0 -1 -0
    outer loop
      vertex -60.0782 -7.5 -0.470568
      vertex -62.4801 -7.5 -2.83684
      vertex -59.5653 -7.5 -2.27326
    endloop
  endfacet
  facet normal 0 -1 0
    outer loop
      vertex -62.3945 -7.5 -3
      vertex -59.5653 -7.5 -2.27326
      vertex -62.4801 -7.5 -2.83684
    endloop
  endfacet
  facet normal 0 -1 -0
    outer loop
      vertex -59.5653 -7.5 -2.27326
      vertex -62.3945 -7.5 -3
      vertex -59.0165 -7.5 -3
    endloop
  endfacet
  facet normal 0 -1 0
    outer loop
      vertex -52.3152 -7.5 4.33611
      vertex -51.2822 -7.5 7.08365
      vertex -54.0629 -7.5 5.01316
    endloop
  endfacet
  facet normal 0 -1 -0
    outer loop
      vertex -51.2822 -7.5 7.08365
      vertex -52.3152 -7.5 4.33611
      vertex -49.695 -7.5 5.98809
    endloop
  endfacet
  facet normal 0 -1 0
    outer loop
      vertex -50.9301 -7.5 3.07344
      vertex -49.695 -7.5 5.98809
      vertex -52.3152 -7.5 4.33611
    endloop
  endfacet
  facet normal 0 -1 -0
    outer loop
      vertex -49.695 -7.5 5.98809
      vertex -50.9301 -7.5 3.07344
      vertex -48.4161 -7.5 4.54452
    endloop
  endfacet
  facet normal 0 -1 0
    outer loop
      vertex -50.9301 -7.5 3.07344
      vertex -47.5199 -7.5 2.83684
      vertex -48.4161 -7.5 4.54452
    endloop
  endfacet
  facet normal 0 -1 0
    outer loop
      vertex -50.0947 -7.5 1.39568
      vertex -47.5199 -7.5 2.83684
      vertex -50.9301 -7.5 3.07344
    endloop
  endfacet
  facet normal 0 -1 0
    outer loop
      vertex -50.0947 -7.5 1.39568
      vertex -47.0583 -7.5 0.964293
      vertex -47.5199 -7.5 2.83684
    endloop
  endfacet
  facet normal 0 -1 0
    outer loop
      vertex -49.9218 -7.5 -0.470568
      vertex -47.0583 -7.5 0.964293
      vertex -50.0947 -7.5 1.39568
    endloop
  endfacet
  facet normal 0 -1 0
    outer loop
      vertex -47.0583 -7.5 -0.964293
      vertex -49.9218 -7.5 -0.470568
      vertex -50 -7.5 -0.745567
    endloop
  endfacet
  facet normal 0 -1 0
    outer loop
      vertex -49.9218 -7.5 -0.470568
      vertex -47.0583 -7.5 -0.964293
      vertex -47.0583 -7.5 0.964293
    endloop
  endfacet
  facet normal 0 -1 0
    outer loop
      vertex -50 -7.5 -0.745567
      vertex -47.5199 -7.5 -2.83684
      vertex -47.0583 -7.5 -0.964293
    endloop
  endfacet
  facet normal 0 -1 0
    outer loop
      vertex -50 -7.5 -3
      vertex -47.5199 -7.5 -2.83684
      vertex -50 -7.5 -0.745567
    endloop
  endfacet
  facet normal 0 -1 0
    outer loop
      vertex -47.5199 -7.5 -2.83684
      vertex -50 -7.5 -3
      vertex -47.6055 -7.5 -3
    endloop
  endfacet
  facet normal 0.568065 0 0.822984
    outer loop
      vertex -51.2822 7.5 7.08365
      vertex -49.695 -7.5 5.98809
      vertex -49.695 7.5 5.98809
    endloop
  endfacet
  facet normal 0.568065 0 0.822984
    outer loop
      vertex -49.695 -7.5 5.98809
      vertex -51.2822 7.5 7.08365
      vertex -51.2822 -7.5 7.08365
    endloop
  endfacet
  facet normal 0.885456 -0 0.464723
    outer loop
      vertex -48.4161 -7.5 4.54452
      vertex -47.5199 7.5 2.83684
      vertex -48.4161 7.5 4.54452
    endloop
  endfacet
  facet normal 0.885456 0 0.464723
    outer loop
      vertex -47.5199 7.5 2.83684
      vertex -48.4161 -7.5 4.54452
      vertex -47.5199 -7.5 2.83684
    endloop
  endfacet
  facet normal 1 -0 0
    outer loop
      vertex -47.0583 -7.5 0.964293
      vertex -47.0583 7.5 -0.964293
      vertex -47.0583 7.5 0.964293
    endloop
  endfacet
  facet normal 1 0 0
    outer loop
      vertex -47.0583 7.5 -0.964293
      vertex -47.0583 -7.5 0.964293
      vertex -47.0583 -7.5 -0.964293
    endloop
  endfacet
  facet normal 0.970942 -0 0.239315
    outer loop
      vertex -47.5199 -7.5 2.83684
      vertex -47.0583 7.5 0.964293
      vertex -47.5199 7.5 2.83684
    endloop
  endfacet
  facet normal 0.970942 0 0.239315
    outer loop
      vertex -47.0583 7.5 0.964293
      vertex -47.5199 -7.5 2.83684
      vertex -47.0583 -7.5 0.964293
    endloop
  endfacet
  facet normal 0 0 -1
    outer loop
      vertex -55.9371 -7.5 5.01316
      vertex -54.0629 7.5 5.01316
      vertex -54.0629 -7.5 5.01316
    endloop
  endfacet
  facet normal -0 0 -1
    outer loop
      vertex -54.0629 7.5 5.01316
      vertex -55.9371 -7.5 5.01316
      vertex -55.9371 7.5 5.01316
    endloop
  endfacet
  facet normal 0.961825 -0 0.273664
    outer loop
      vertex -60.0782 -7.5 -0.470568
      vertex -59.5653 7.5 -2.27326
      vertex -60.0782 7.5 -0.470568
    endloop
  endfacet
  facet normal 0.961825 0 0.273664
    outer loop
      vertex -59.5653 7.5 -2.27326
      vertex -60.0782 -7.5 -0.470568
      vertex -59.5653 -7.5 -2.27326
    endloop
  endfacet
  facet normal -0.995734 0 -0.0922675
    outer loop
      vertex -49.9218 -7.5 -0.470568
      vertex -50.0947 7.5 1.39568
      vertex -49.9218 7.5 -0.470568
    endloop
  endfacet
  facet normal -0.995734 -0 -0.0922675
    outer loop
      vertex -50.0947 7.5 1.39568
      vertex -49.9218 -7.5 -0.470568
      vertex -50.0947 -7.5 1.39568
    endloop
  endfacet
  facet normal 0.798019 -0 0.602632
    outer loop
      vertex -59.5653 -7.5 -2.27326
      vertex -59.0165 7.5 -3
      vertex -59.5653 7.5 -2.27326
    endloop
  endfacet
  facet normal 0.798019 0 0.602632
    outer loop
      vertex -59.0165 7.5 -3
      vertex -59.5653 -7.5 -2.27326
      vertex -59.0165 -7.5 -3
    endloop
  endfacet
  facet normal 0.995734 0 -0.0922675
    outer loop
      vertex -59.9053 -7.5 1.39568
      vertex -60.0782 7.5 -0.470568
      vertex -59.9053 7.5 1.39568
    endloop
  endfacet
  facet normal 0.995734 0 -0.0922675
    outer loop
      vertex -60.0782 7.5 -0.470568
      vertex -59.9053 -7.5 1.39568
      vertex -60.0782 -7.5 -0.470568
    endloop
  endfacet
  facet normal 0.895163 0 -0.44574
    outer loop
      vertex -59.0699 -7.5 3.07344
      vertex -59.9053 7.5 1.39568
      vertex -59.0699 7.5 3.07344
    endloop
  endfacet
  facet normal 0.895163 0 -0.44574
    outer loop
      vertex -59.9053 7.5 1.39568
      vertex -59.0699 -7.5 3.07344
      vertex -59.9053 -7.5 1.39568
    endloop
  endfacet
  facet normal 0.673696 0 -0.739008
    outer loop
      vertex -59.0699 -7.5 3.07344
      vertex -57.6848 7.5 4.33611
      vertex -57.6848 -7.5 4.33611
    endloop
  endfacet
  facet normal 0.673696 0 -0.739008
    outer loop
      vertex -57.6848 7.5 4.33611
      vertex -59.0699 -7.5 3.07344
      vertex -59.0699 7.5 3.07344
    endloop
  endfacet
  facet normal -0.961826 0 0.27366
    outer loop
      vertex -50 -7.5 -0.745567
      vertex -49.9218 7.5 -0.470568
      vertex -50 7.5 -0.745567
    endloop
  endfacet
  facet normal -0.961826 0 0.27366
    outer loop
      vertex -49.9218 7.5 -0.470568
      vertex -50 -7.5 -0.745567
      vertex -49.9218 -7.5 -0.470568
    endloop
  endfacet
  facet normal -0.361242 0 -0.932472
    outer loop
      vertex -54.0629 -7.5 5.01316
      vertex -52.3152 7.5 4.33611
      vertex -52.3152 -7.5 4.33611
    endloop
  endfacet
  facet normal -0.361242 0 -0.932472
    outer loop
      vertex -52.3152 7.5 4.33611
      vertex -54.0629 -7.5 5.01316
      vertex -54.0629 7.5 5.01316
    endloop
  endfacet
  facet normal -0.895163 0 -0.445738
    outer loop
      vertex -50.0947 -7.5 1.39568
      vertex -50.9301 7.5 3.07344
      vertex -50.0947 7.5 1.39568
    endloop
  endfacet
  facet normal -0.895163 2.27652e-007 -0.44574
    outer loop
      vertex -50.9301 7.5 3.07344
      vertex -50.0947 -7.5 1.39568
      vertex -50.9301 -7.5 3.07344
    endloop
  endfacet
  facet normal 0.361242 0 -0.932472
    outer loop
      vertex -57.6848 -7.5 4.33611
      vertex -55.9371 7.5 5.01316
      vertex -55.9371 -7.5 5.01316
    endloop
  endfacet
  facet normal 0.361242 0 -0.932472
    outer loop
      vertex -55.9371 7.5 5.01316
      vertex -57.6848 -7.5 4.33611
      vertex -57.6848 7.5 4.33611
    endloop
  endfacet
  facet normal -0.673696 1.7133e-007 -0.739008
    outer loop
      vertex -52.3152 -7.5 4.33611
      vertex -50.9301 7.5 3.07344
      vertex -50.9301 -7.5 3.07344
    endloop
  endfacet
  facet normal -0.673695 0 -0.739009
    outer loop
      vertex -50.9301 7.5 3.07344
      vertex -52.3152 -7.5 4.33611
      vertex -52.3152 7.5 4.33611
    endloop
  endfacet
  facet normal -1 0 0
    outer loop
      vertex -50 -4.44089e-016 -3
      vertex -50 -7.5 -3
      vertex -50 -8.88178e-016 -1
    endloop
  endfacet
  facet normal -1 0 0
    outer loop
      vertex -50 -8.88178e-016 -1
      vertex -50 7.5 -0.745567
      vertex -50 7.5 -1
    endloop
  endfacet
  facet normal -1 0 0
    outer loop
      vertex -50 -8.88178e-016 -1
      vertex -50 -7.5 -0.745567
      vertex -50 7.5 -0.745567
    endloop
  endfacet
  facet normal -1 0 0
    outer loop
      vertex -50 -7.5 -0.745567
      vertex -50 -8.88178e-016 -1
      vertex -50 -7.5 -3
    endloop
  endfacet
  facet normal 0 0 -1
    outer loop
      vertex -62.3945 -7.5 -3
      vertex -59.0165 7.5 -3
      vertex -59.0165 -7.5 -3
    endloop
  endfacet
  facet normal -0 0 -1
    outer loop
      vertex -59.0165 7.5 -3
      vertex -62.3945 -7.5 -3
      vertex -62.3945 7.5 -3
    endloop
  endfacet
  facet normal 1 -0 0
    outer loop
      vertex 0 -1.7 -1
      vertex 0 1.7 -3.5
      vertex 0 1.7 -1
    endloop
  endfacet
  facet normal 1 0 0
    outer loop
      vertex 0 1.7 -3.5
      vertex 0 -1.7 -1
      vertex 0 -1.7 -3.5
    endloop
  endfacet
  facet normal -1 0 0
    outer loop
      vertex 40 -1.7 -3.5
      vertex 40 1.7 -1
      vertex 40 1.7 -3.5
    endloop
  endfacet
  facet normal -1 -0 0
    outer loop
      vertex 40 1.7 -1
      vertex 40 -1.7 -3.5
      vertex 40 -1.7 -1
    endloop
  endfacet
  facet normal 0 -1 0
    outer loop
      vertex 0 1.7 -3.5
      vertex 40 1.7 -1
      vertex 0 1.7 -1
    endloop
  endfacet
  facet normal 0 -1 -0
    outer loop
      vertex 40 1.7 -1
      vertex 0 1.7 -3.5
      vertex 40 1.7 -3.5
    endloop
  endfacet
  facet normal 0 1 -0
    outer loop
      vertex 40 -1.7 -3.5
      vertex 0 -1.7 -1
      vertex 40 -1.7 -1
    endloop
  endfacet
  facet normal 0 1 0
    outer loop
      vertex 0 -1.7 -1
      vertex 40 -1.7 -3.5
      vertex 0 -1.7 -3.5
    endloop
  endfacet
  facet normal 1 -0 0
    outer loop
      vertex -2 -4 -3.5
      vertex -2 4 -6
      vertex -2 4 -3.5
    endloop
  endfacet
  facet normal 1 0 0
    outer loop
      vertex -2 4 -6
      vertex -2 -4 -3.5
      vertex -2 -4 -6
    endloop
  endfacet
  facet normal 0 0 -1
    outer loop
      vertex 42 -4 -3.5
      vertex 40 -1.7 -3.5
      vertex 42 4 -3.5
    endloop
  endfacet
  facet normal 0 0 -1
    outer loop
      vertex 42 -4 -3.5
      vertex 0 -1.7 -3.5
      vertex 40 -1.7 -3.5
    endloop
  endfacet
  facet normal -0 0 -1
    outer loop
      vertex 0 -1.7 -3.5
      vertex -2 -4 -3.5
      vertex 0 1.7 -3.5
    endloop
  endfacet
  facet normal 0 0 -1
    outer loop
      vertex -2 -4 -3.5
      vertex 0 -1.7 -3.5
      vertex 42 -4 -3.5
    endloop
  endfacet
  facet normal 0 0 -1
    outer loop
      vertex 40 1.7 -3.5
      vertex 42 4 -3.5
      vertex 40 -1.7 -3.5
    endloop
  endfacet
  facet normal 0 0 -1
    outer loop
      vertex 0 1.7 -3.5
      vertex 42 4 -3.5
      vertex 40 1.7 -3.5
    endloop
  endfacet
  facet normal 0 0 -1
    outer loop
      vertex 0 1.7 -3.5
      vertex -2 4 -3.5
      vertex 42 4 -3.5
    endloop
  endfacet
  facet normal 0 0 -1
    outer loop
      vertex -2 4 -3.5
      vertex 0 1.7 -3.5
      vertex -2 -4 -3.5
    endloop
  endfacet
  facet normal -1 0 0
    outer loop
      vertex 42 -4 -6
      vertex 42 4 -3.5
      vertex 42 4 -6
    endloop
  endfacet
  facet normal -1 -0 0
    outer loop
      vertex 42 4 -3.5
      vertex 42 -4 -6
      vertex 42 -4 -3.5
    endloop
  endfacet
  facet normal 0 1 -0
    outer loop
      vertex 42 -4 -6
      vertex -2 -4 -3.5
      vertex 42 -4 -3.5
    endloop
  endfacet
  facet normal 0 1 0
    outer loop
      vertex -2 -4 -3.5
      vertex 42 -4 -6
      vertex -2 -4 -6
    endloop
  endfacet
  facet normal 0 -1 0
    outer loop
      vertex -2 4 -6
      vertex 42 4 -3.5
      vertex -2 4 -3.5
    endloop
  endfacet
  facet normal 0 -1 -0
    outer loop
      vertex 42 4 -3.5
      vertex -2 4 -6
      vertex 42 4 -6
    endloop
  endfacet
  facet normal -1 0 0
    outer loop
      vertex -50 7.5 -6
      vertex -50 -4.44089e-016 -3
      vertex -50 7.5 -1
    endloop
  endfacet
  facet normal -1 0 0
    outer loop
      vertex -50 -7.5 -6
      vertex -50 -4.44089e-016 -3
      vertex -50 7.5 -6
    endloop
  endfacet
  facet normal -1 -0 0
    outer loop
      vertex -50 -4.44089e-016 -3
      vertex -50 -7.5 -6
      vertex -50 -7.5 -3
    endloop
  endfacet
  facet normal -1 -0 0
    outer loop
      vertex -50 7.5 -1
      vertex -50 -4.44089e-016 -3
      vertex -50 -8.88178e-016 -1
    endloop
  endfacet
  facet normal 0 0 1
    outer loop
      vertex 50 7.5 -1
      vertex 40 1.7 -1
      vertex 50 -7.5 -1
    endloop
  endfacet
  facet normal 0 0 1
    outer loop
      vertex 50 7.5 -1
      vertex 0 1.7 -1
      vertex 40 1.7 -1
    endloop
  endfacet
  facet normal 0 0 1
    outer loop
      vertex 0 1.7 -1
      vertex -47.0671 7.5 -1
      vertex 0 -1.7 -1
    endloop
  endfacet
  facet normal -0 0 1
    outer loop
      vertex -47.0671 7.5 -1
      vertex 0 1.7 -1
      vertex 50 7.5 -1
    endloop
  endfacet
  facet normal -0 0 1
    outer loop
      vertex 40 -1.7 -1
      vertex 50 -7.5 -1
      vertex 40 1.7 -1
    endloop
  endfacet
  facet normal -0 0 1
    outer loop
      vertex 0 -1.7 -1
      vertex 50 -7.5 -1
      vertex 40 -1.7 -1
    endloop
  endfacet
  facet normal 0 0 1
    outer loop
      vertex 0 -1.7 -1
      vertex -47.0671 -7.5 -1
      vertex 50 -7.5 -1
    endloop
  endfacet
  facet normal 0 0 1
    outer loop
      vertex -47.0671 -7.5 -1
      vertex 0 -1.7 -1
      vertex -47.0671 7.5 -1
    endloop
  endfacet
  facet normal 0 0 0
    outer loop
      vertex 50 7.5 -1
      vertex -50 7.5 -1
      vertex -47.0671 7.5 -1
    endloop
  endfacet
  facet normal 1 -0 0
    outer loop
      vertex 50 -7.5 -1
      vertex 50 7.5 -6
      vertex 50 7.5 -1
    endloop
  endfacet
  facet normal 1 0 0
    outer loop
      vertex 50 7.5 -6
      vertex 50 -7.5 -1
      vertex 50 -7.5 -6
    endloop
  endfacet
  facet normal 0 0 -1
    outer loop
      vertex 50 -7.5 -6
      vertex 42 -4 -6
      vertex 50 7.5 -6
    endloop
  endfacet
  facet normal 0 0 -1
    outer loop
      vertex 50 -7.5 -6
      vertex -2 -4 -6
      vertex 42 -4 -6
    endloop
  endfacet
  facet normal -0 0 -1
    outer loop
      vertex -2 -4 -6
      vertex -50 -7.5 -6
      vertex -2 4 -6
    endloop
  endfacet
  facet normal 0 0 -1
    outer loop
      vertex -50 -7.5 -6
      vertex -2 -4 -6
      vertex 50 -7.5 -6
    endloop
  endfacet
  facet normal 0 0 -1
    outer loop
      vertex 42 4 -6
      vertex 50 7.5 -6
      vertex 42 -4 -6
    endloop
  endfacet
  facet normal 0 0 -1
    outer loop
      vertex -2 4 -6
      vertex 50 7.5 -6
      vertex 42 4 -6
    endloop
  endfacet
  facet normal 0 0 -1
    outer loop
      vertex -2 4 -6
      vertex -50 7.5 -6
      vertex 50 7.5 -6
    endloop
  endfacet
  facet normal 0 0 -1
    outer loop
      vertex -50 7.5 -6
      vertex -2 4 -6
      vertex -50 -7.5 -6
    endloop
  endfacet
  facet normal 0 -1 0
    outer loop
      vertex -50 -7.5 -3
      vertex -50 -7.5 -6
      vertex -47.6055 -7.5 -3
    endloop
  endfacet
  facet normal 0 -1 0
    outer loop
      vertex 50 -7.5 -6
      vertex -47.0671 -7.5 -1
      vertex -47.5199 -7.5 -2.83684
    endloop
  endfacet
  facet normal 0 -1 0
    outer loop
      vertex 50 -7.5 -6
      vertex -47.5199 -7.5 -2.83684
      vertex -47.6055 -7.5 -3
    endloop
  endfacet
  facet normal 0 -1 0
    outer loop
      vertex 50 -7.5 -6
      vertex -47.6055 -7.5 -3
      vertex -50 -7.5 -6
    endloop
  endfacet
  facet normal 0 -1 0
    outer loop
      vertex -47.0671 -7.5 -1
      vertex 50 -7.5 -6
      vertex 50 -7.5 -1
    endloop
  endfacet
  facet normal 0 1 -0
    outer loop
      vertex 50 7.5 -6
      vertex -50 7.5 -1
      vertex 50 7.5 -1
    endloop
  endfacet
  facet normal 0 1 0
    outer loop
      vertex -50 7.5 -1
      vertex 50 7.5 -6
      vertex -50 7.5 -6
    endloop
  endfacet
endsolid OpenSCAD_Model
